<svg height="480pt" viewBox="0 0 480 480" width="480pt" xmlns="http://www.w3.org/2000/svg" xmlns:xlink="http://www.w3.org/1999/xlink"><linearGradient id="linear0" gradientUnits="userSpaceOnUse" x1="240" x2="240" y1="480" y2="0"><stop offset="0" stop-color="#12c2e9"/><stop offset=".056" stop-color="#19bfe9"/><stop offset=".137" stop-color="#2db6ea"/><stop offset=".235" stop-color="#4da7ea"/><stop offset=".344" stop-color="#7993eb"/><stop offset=".462" stop-color="#b279ed"/><stop offset=".497" stop-color="#c471ed"/><stop offset="1" stop-color="#f64f59"/></linearGradient><path d="m240 0c-132.546875 0-240 107.453125-240 240s107.453125 240 240 240 240-107.453125 240-240c-.148438-132.484375-107.515625-239.851562-240-240zm0 464c-123.710938 0-224-100.289062-224-224s100.289062-224 224-224 224 100.289062 224 224c-.140625 123.652344-100.347656 223.859375-224 224zm104-224c-.007812 50.46875-36.246094 93.648438-85.949219 102.40625-49.703125 8.761719-98.519531-19.429688-115.78125-66.855469-17.257812-47.425781 2.023438-100.394531 45.730469-125.628906 3.808594-2.050781 8.554688-.703125 10.71875 3.039063 2.164062 3.746093.957031 8.53125-2.71875 10.808593-34.492188 19.914063-51.308594 60.511719-41 98.984375s45.171875 65.222656 85 65.222656 74.691406-26.75 85-65.222656-6.507812-79.070312-41-98.984375c-3.675781-2.277343-4.882812-7.0625-2.71875-10.808593 2.164062-3.742188 6.910156-5.089844 10.71875-3.039063 32.125 18.636719 51.925781 52.9375 52 90.078125zm-112-48v-96c0-4.417969 3.582031-8 8-8s8 3.582031 8 8v96c0 4.417969-3.582031 8-8 8s-8-3.582031-8-8zm0 0" fill="url(#linear0)"/></svg>