<svg height="480pt" viewBox="0 0 480 480" width="480pt" xmlns="http://www.w3.org/2000/svg" xmlns:xlink="http://www.w3.org/1999/xlink"><linearGradient id="linear0" gradientUnits="userSpaceOnUse" x1="240" x2="240" y1="480" y2="0"><stop offset="0" stop-color="#12c2e9"/><stop offset=".056" stop-color="#19bfe9"/><stop offset=".137" stop-color="#2db6ea"/><stop offset=".235" stop-color="#4da7ea"/><stop offset=".344" stop-color="#7993eb"/><stop offset=".462" stop-color="#b279ed"/><stop offset=".497" stop-color="#c471ed"/><stop offset="1" stop-color="#f64f59"/></linearGradient><path d="m240 0c-132.546875 0-240 107.453125-240 240s107.453125 240 240 240 240-107.453125 240-240c-.148438-132.484375-107.515625-239.851562-240-240zm0 464c-123.710938 0-224-100.289062-224-224s100.289062-224 224-224 224 100.289062 224 224c-.140625 123.652344-100.347656 223.859375-224 224zm120-248h-24v-24c0-4.417969-3.582031-8-8-8h-32c-4.417969 0-8 3.582031-8 8v24h-36.175781c-11.6875-33.0625-45.496094-52.894531-80.058594-46.964844-34.5625 5.929688-59.824219 35.898438-59.824219 70.964844s25.261719 65.035156 59.824219 70.964844c34.5625 5.929687 68.371094-13.902344 80.058594-46.964844h92.175781c3.046875.015625 5.839844-1.699219 7.199219-4.425781l16-32c1.242187-2.484375 1.105469-5.4375-.363281-7.800781-1.46875-2.359376-4.054688-3.789063-6.835938-3.773438zm-20.945312 32h-93.152344c-3.644532 0-6.832032 2.46875-7.742188 6-7.050781 27.304688-33.304687 45.105469-61.277344 41.554688-27.976562-3.554688-48.945312-27.355469-48.945312-55.554688s20.96875-52 48.945312-55.554688c27.972657-3.550781 54.226563 14.25 61.277344 41.554688.910156 3.53125 4.097656 6 7.742188 6h50.097656c4.417969 0 8-3.582031 8-8v-24h16v24c0 4.417969 3.582031 8 8 8h19.054688zm-155.054688-32c-13.253906 0-24 10.746094-24 24s10.746094 24 24 24 24-10.746094 24-24-10.746094-24-24-24zm0 32c-4.417969 0-8-3.582031-8-8s3.582031-8 8-8 8 3.582031 8 8-3.582031 8-8 8zm0 0" fill="url(#linear0)"/></svg>