<?xml version="1.0"?>
<svg xmlns="http://www.w3.org/2000/svg" xmlns:xlink="http://www.w3.org/1999/xlink" id="Gradient" viewBox="0 0 512 512" width="512" height="512"><defs><linearGradient id="linear-gradient" x1="255.5" y1="496" x2="255.5" y2="16.001" gradientUnits="userSpaceOnUse"><stop offset="0" stop-color="#12c2e9"/><stop offset="0.5" stop-color="#c471ed"/><stop offset="1" stop-color="#f64f59"/></linearGradient></defs><path d="M343.635,106.34a7.942,7.942,0,0,0-3.644-9.273C335.237,94.33,319.746,83.285,320,56.074a8,8,0,0,0-15.987-.525c-.981,17.363-4.552,30.959-18.4,40.455L232,96C121.72,96,32,185.72,32,296A198.413,198.413,0,0,0,85.464,432.105c-.546.371-1.1.738-1.68,1.1a8,8,0,0,0-.318,13.39c16.222,11.159,19.85,35.14,20.576,42.224a8,8,0,0,0,15.916,0,82.357,82.357,0,0,1,5.946-23.253A198.83,198.83,0,0,0,232,496h48c110.28,0,200-89.72,200-200A200.072,200.072,0,0,0,343.635,106.34ZM421.5,360h31.013a183.893,183.893,0,0,1-26.633,48h-28.26A199.457,199.457,0,0,0,421.5,360Zm.018-128h31.01A183.57,183.57,0,0,1,463.3,280H431.357A199.864,199.864,0,0,0,421.517,232ZM416,216v1.527A199.015,199.015,0,0,0,385.671,168h26.548a184.649,184.649,0,0,1,33.49,48Zm-21.37-64H370.766a200.5,200.5,0,0,0-40.685-30.329c.5-.783,1.026-1.557,1.58-2.314A183.067,183.067,0,0,1,394.63,152ZM311.992,90.07a54.773,54.773,0,0,0,11.22,14.435A63.464,63.464,0,0,0,312,121.384a63.412,63.412,0,0,0-11.269-16.94A52.094,52.094,0,0,0,311.992,90.07ZM112,457.384a63.415,63.415,0,0,0-11.269-16.939,52.1,52.1,0,0,0,11.261-14.375,54.773,54.773,0,0,0,11.22,14.435A63.464,63.464,0,0,0,112,457.384ZM134.4,452a35.316,35.316,0,0,1,6.134-5.413,8,8,0,0,0-.542-13.524c-4.754-2.737-20.245-13.782-19.992-40.993a8,8,0,0,0-15.987-.525c-.64,11.334-2.382,21.063-7.366,29.1A182.534,182.534,0,0,1,48,296c0-101.458,82.542-184,184-184a183.359,183.359,0,0,1,62.733,10.981c6.828,11.393,8.8,24.829,9.309,29.834a8,8,0,0,0,15.916,0,85.342,85.342,0,0,1,3.437-16.53A183.4,183.4,0,0,1,416,296c0,101.458-82.542,184-184,184A182.909,182.909,0,0,1,134.4,452Zm185.451,23.637A201.24,201.24,0,0,0,385.55,424h26.5A183.946,183.946,0,0,1,319.851,475.641ZM457.636,344H426.163A199.732,199.732,0,0,0,432,296h32A183.6,183.6,0,0,1,457.636,344ZM34.466,78.591c16.222,11.159,19.85,35.14,20.576,42.224a8,8,0,0,0,15.916,0c.726-7.084,4.354-31.064,20.576-42.224a8,8,0,0,0-.542-13.524C86.238,62.33,70.747,51.285,71,24.074a8,8,0,0,0-15.987-.525C53.99,41.654,50.159,55.666,34.784,65.2a8,8,0,0,0-.318,13.39ZM63,89.384A63.415,63.415,0,0,0,51.731,72.445,52.1,52.1,0,0,0,62.992,58.07a54.773,54.773,0,0,0,11.22,14.435A63.464,63.464,0,0,0,63,89.384ZM208,264a24.027,24.027,0,0,0,24,24,40,40,0,0,1,8,79.195V384a8,8,0,0,1-16,0V367.2A40.067,40.067,0,0,1,192,328a8,8,0,0,1,16,0,24,24,0,1,0,24-24,40,40,0,0,1-8-79.195V208a8,8,0,0,1,16,0v16.805A40.067,40.067,0,0,1,272,264a8,8,0,0,1-16,0,24,24,0,0,0-48,0Zm176,32c0,83.813-68.187,152-152,152a151.058,151.058,0,0,1-59.113-11.925,8,8,0,0,1,6.226-14.739A135.149,135.149,0,0,0,232,432c74.99,0,136-61.009,136-136a135.347,135.347,0,0,0-22.9-75.55,8,8,0,0,1,13.3-8.9A151.3,151.3,0,0,1,384,296ZM232,160c-74.991,0-136,61.009-136,136a136.215,136.215,0,0,0,5.315,37.782,8,8,0,1,1-15.373,4.436A152.217,152.217,0,0,1,80,296c0-83.813,68.187-152,152-152a153.43,153.43,0,0,1,25.324,2.1,8,8,0,1,1-2.648,15.779A137.445,137.445,0,0,0,232,160Z" style="fill:url(#linear-gradient)"/></svg>
