<svg id="Gradient" height="512" viewBox="0 0 512 512" width="512" xmlns="http://www.w3.org/2000/svg" xmlns:xlink="http://www.w3.org/1999/xlink"><linearGradient id="linear-gradient" gradientUnits="userSpaceOnUse" x1="256" x2="256" y1="496" y2="16"><stop offset="0" stop-color="#12c2e9"/><stop offset=".5" stop-color="#c471ed"/><stop offset="1" stop-color="#f64f59"/></linearGradient><path d="m36.169 415.023c3.666 2 90.814 48.977 179.831 48.977a332.265 332.265 0 0 0 67.026-7.122 111.977 111.977 0 1 0 84.974-184.878c-2.141 0-4.267.066-6.379.186-25.416-38.013-61.229-63.9-102.115-74.624a96 96 0 1 0 -86.978.017c-33.16 8.7-63.155 27.408-87.009 54.772-34.512 39.59-53.519 94.867-53.519 155.649a8 8 0 0 0 4.169 7.023zm331.831-127.023a96 96 0 1 1 -96 96 96.108 96.108 0 0 1 96-96zm-232-176a80 80 0 1 1 80 80 80.091 80.091 0 0 1 -80-80zm-38.42 150.865c30.842-35.38 72.898-54.865 118.42-54.865 50.71 0 96.7 24.14 127.817 66.637a111.947 111.947 0 0 0 -71.217 167.976 312.093 312.093 0 0 1 -56.6 5.387c-74.188 0-149.593-35.583-167.958-44.844.971-54.992 18.475-104.656 49.538-140.291zm206.42 121.135a8 8 0 0 1 8-8h112a8 8 0 0 1 0 16h-112a8 8 0 0 1 -8-8z" fill="url(#linear-gradient)"/></svg>